<mxfile host="app.diagrams.net" modified="2020-09-17T02:08:06.696Z" agent="5.0 (Windows NT 10.0; Win64; x64) AppleWebKit/537.36 (KHTML, like Gecko) Chrome/85.0.4183.102 Safari/537.36" etag="mW5lZ64QknR4zYrVK7XD" version="13.7.1" type="github">
  <diagram id="kgpKYQtTHZ0yAKxKKP6v" name="Page-1">
    <mxGraphModel dx="981" dy="548" grid="1" gridSize="10" guides="1" tooltips="1" connect="1" arrows="1" fold="1" page="1" pageScale="1" pageWidth="850" pageHeight="1100" math="0" shadow="0">
      <root>
        <mxCell id="0" />
        <mxCell id="1" parent="0" />
        <mxCell id="3nuBFxr9cyL0pnOWT2aG-1" value="系统A(发送)" style="shape=umlLifeline;perimeter=lifelinePerimeter;container=1;collapsible=0;recursiveResize=0;rounded=0;shadow=0;strokeWidth=1;" parent="1" vertex="1">
          <mxGeometry x="120" y="80" width="100" height="450" as="geometry" />
        </mxCell>
        <mxCell id="3nuBFxr9cyL0pnOWT2aG-2" value="" style="points=[];perimeter=orthogonalPerimeter;rounded=0;shadow=0;strokeWidth=1;" parent="3nuBFxr9cyL0pnOWT2aG-1" vertex="1">
          <mxGeometry x="45" y="70" width="10" height="190" as="geometry" />
        </mxCell>
        <mxCell id="3nuBFxr9cyL0pnOWT2aG-3" value="发起调用" style="verticalAlign=bottom;startArrow=oval;endArrow=block;startSize=8;shadow=0;strokeWidth=1;entryX=-0.255;entryY=0.508;entryDx=0;entryDy=0;entryPerimeter=0;" parent="3nuBFxr9cyL0pnOWT2aG-1" target="hFzFR_VI_wr5qBQL5rgS-8" edge="1">
          <mxGeometry relative="1" as="geometry">
            <mxPoint x="-60" y="350" as="sourcePoint" />
            <Array as="points" />
          </mxGeometry>
        </mxCell>
        <mxCell id="hFzFR_VI_wr5qBQL5rgS-8" value="" style="points=[];perimeter=orthogonalPerimeter;rounded=0;shadow=0;strokeWidth=1;" vertex="1" parent="3nuBFxr9cyL0pnOWT2aG-1">
          <mxGeometry x="45" y="310" width="10" height="80" as="geometry" />
        </mxCell>
        <mxCell id="3nuBFxr9cyL0pnOWT2aG-5" value="CSB服务总线&#xa;控制台" style="shape=umlLifeline;perimeter=lifelinePerimeter;container=1;collapsible=0;recursiveResize=0;rounded=0;shadow=0;strokeWidth=1;" parent="1" vertex="1">
          <mxGeometry x="460" y="80" width="100" height="450" as="geometry" />
        </mxCell>
        <mxCell id="3nuBFxr9cyL0pnOWT2aG-6" value="" style="points=[];perimeter=orthogonalPerimeter;rounded=0;shadow=0;strokeWidth=1;" parent="3nuBFxr9cyL0pnOWT2aG-5" vertex="1">
          <mxGeometry x="45" y="70" width="10" height="170" as="geometry" />
        </mxCell>
        <mxCell id="hFzFR_VI_wr5qBQL5rgS-11" value="" style="points=[];perimeter=orthogonalPerimeter;rounded=0;shadow=0;strokeWidth=1;" vertex="1" parent="3nuBFxr9cyL0pnOWT2aG-5">
          <mxGeometry x="45" y="320" width="10" height="80" as="geometry" />
        </mxCell>
        <mxCell id="3nuBFxr9cyL0pnOWT2aG-8" value="注册发送接口到CSB服务" style="verticalAlign=bottom;endArrow=block;entryX=0.09;entryY=0.125;shadow=0;strokeWidth=1;exitX=1.193;exitY=0.119;exitDx=0;exitDy=0;exitPerimeter=0;entryDx=0;entryDy=0;entryPerimeter=0;" parent="1" source="3nuBFxr9cyL0pnOWT2aG-2" target="3nuBFxr9cyL0pnOWT2aG-6" edge="1">
          <mxGeometry relative="1" as="geometry">
            <mxPoint x="275" y="160" as="sourcePoint" />
          </mxGeometry>
        </mxCell>
        <mxCell id="hFzFR_VI_wr5qBQL5rgS-1" value="消息系统" style="shape=umlLifeline;perimeter=lifelinePerimeter;container=1;collapsible=0;recursiveResize=0;rounded=0;shadow=0;strokeWidth=1;" vertex="1" parent="1">
          <mxGeometry x="620" y="80" width="100" height="450" as="geometry" />
        </mxCell>
        <mxCell id="hFzFR_VI_wr5qBQL5rgS-2" value="" style="points=[];perimeter=orthogonalPerimeter;rounded=0;shadow=0;strokeWidth=1;" vertex="1" parent="hFzFR_VI_wr5qBQL5rgS-1">
          <mxGeometry x="45" y="80" width="10" height="160" as="geometry" />
        </mxCell>
        <mxCell id="hFzFR_VI_wr5qBQL5rgS-15" value="" style="points=[];perimeter=orthogonalPerimeter;rounded=0;shadow=0;strokeWidth=1;" vertex="1" parent="hFzFR_VI_wr5qBQL5rgS-1">
          <mxGeometry x="45" y="310" width="10" height="140" as="geometry" />
        </mxCell>
        <mxCell id="hFzFR_VI_wr5qBQL5rgS-3" value="系统B(接收)" style="shape=umlLifeline;perimeter=lifelinePerimeter;container=1;collapsible=0;recursiveResize=0;rounded=0;shadow=0;strokeWidth=1;" vertex="1" parent="1">
          <mxGeometry x="300" y="80" width="100" height="460" as="geometry" />
        </mxCell>
        <mxCell id="hFzFR_VI_wr5qBQL5rgS-4" value="" style="points=[];perimeter=orthogonalPerimeter;rounded=0;shadow=0;strokeWidth=1;" vertex="1" parent="hFzFR_VI_wr5qBQL5rgS-3">
          <mxGeometry x="45" y="130" width="10" height="160" as="geometry" />
        </mxCell>
        <mxCell id="hFzFR_VI_wr5qBQL5rgS-20" value="" style="points=[];perimeter=orthogonalPerimeter;rounded=0;shadow=0;strokeWidth=1;" vertex="1" parent="hFzFR_VI_wr5qBQL5rgS-3">
          <mxGeometry x="45" y="380" width="10" height="80" as="geometry" />
        </mxCell>
        <mxCell id="hFzFR_VI_wr5qBQL5rgS-5" value="注册接收接口到CSB服务" style="verticalAlign=bottom;endArrow=block;entryX=0;entryY=0;shadow=0;strokeWidth=1;exitX=0.917;exitY=0.125;exitDx=0;exitDy=0;exitPerimeter=0;" edge="1" parent="1" source="hFzFR_VI_wr5qBQL5rgS-4">
          <mxGeometry relative="1" as="geometry">
            <mxPoint x="360" y="230" as="sourcePoint" />
            <mxPoint x="505" y="230.0000000000001" as="targetPoint" />
          </mxGeometry>
        </mxCell>
        <mxCell id="hFzFR_VI_wr5qBQL5rgS-6" value="将包含系统A消息的请求发送到系统B的接收接口" style="verticalAlign=bottom;endArrow=block;shadow=0;strokeWidth=1;entryX=0.917;entryY=0.633;entryDx=0;entryDy=0;entryPerimeter=0;" edge="1" parent="1" source="hFzFR_VI_wr5qBQL5rgS-15" target="hFzFR_VI_wr5qBQL5rgS-20">
          <mxGeometry relative="1" as="geometry">
            <mxPoint x="662.25" y="510" as="sourcePoint" />
            <mxPoint x="360" y="510" as="targetPoint" />
            <Array as="points" />
          </mxGeometry>
        </mxCell>
        <mxCell id="hFzFR_VI_wr5qBQL5rgS-10" value="注册渠道，消息源到消息系统" style="verticalAlign=bottom;endArrow=block;shadow=0;strokeWidth=1;exitX=1.124;exitY=0.504;exitDx=0;exitDy=0;exitPerimeter=0;entryX=0.159;entryY=0.825;entryDx=0;entryDy=0;entryPerimeter=0;" edge="1" parent="1" source="hFzFR_VI_wr5qBQL5rgS-4" target="hFzFR_VI_wr5qBQL5rgS-2">
          <mxGeometry relative="1" as="geometry">
            <mxPoint x="360" y="290" as="sourcePoint" />
            <mxPoint x="660" y="290" as="targetPoint" />
            <Array as="points">
              <mxPoint x="460" y="290" />
            </Array>
          </mxGeometry>
        </mxCell>
        <mxCell id="hFzFR_VI_wr5qBQL5rgS-16" value="通过阿里httpCaller调用csb接收接口，&#xa;请求参数带有注册的消息源id" style="verticalAlign=bottom;endArrow=block;shadow=0;strokeWidth=1;exitX=0.917;exitY=0.499;exitDx=0;exitDy=0;exitPerimeter=0;entryX=0.09;entryY=0.383;entryDx=0;entryDy=0;entryPerimeter=0;" edge="1" parent="1" source="hFzFR_VI_wr5qBQL5rgS-8" target="hFzFR_VI_wr5qBQL5rgS-11">
          <mxGeometry relative="1" as="geometry">
            <mxPoint x="180" y="430.0000000000001" as="sourcePoint" />
            <mxPoint x="500" y="430" as="targetPoint" />
          </mxGeometry>
        </mxCell>
        <mxCell id="hFzFR_VI_wr5qBQL5rgS-17" value="根据注册的接收服务&#xa;，将请求转发到消息系统" style="verticalAlign=bottom;endArrow=block;shadow=0;strokeWidth=1;entryX=0.09;entryY=0.502;entryDx=0;entryDy=0;entryPerimeter=0;" edge="1" parent="1" source="hFzFR_VI_wr5qBQL5rgS-11" target="hFzFR_VI_wr5qBQL5rgS-15">
          <mxGeometry relative="1" as="geometry">
            <mxPoint x="520" y="450" as="sourcePoint" />
            <mxPoint x="660" y="460" as="targetPoint" />
            <Array as="points">
              <mxPoint x="530" y="460" />
              <mxPoint x="620" y="460" />
            </Array>
          </mxGeometry>
        </mxCell>
      </root>
    </mxGraphModel>
  </diagram>
</mxfile>
